<svg width="92" height="32" viewBox="0 0 92 32" fill="none" xmlns="http://www.w3.org/2000/svg">
<rect width="92" height="32" rx="16" fill="#1D3557"/>
<path d="M18.5679 22V8.49219H22.3809C23.556 8.49219 24.5951 8.75195 25.498 9.27148C26.401 9.79102 27.0968 10.5301 27.5854 11.4888C28.0802 12.4474 28.3307 13.5483 28.3369 14.7915V15.6543C28.3369 16.9284 28.0895 18.0448 27.5947 19.0034C27.1061 19.9621 26.4041 20.6981 25.4888 21.2114C24.5796 21.7248 23.5189 21.9876 22.3066 22H18.5679ZM20.3491 9.95801V20.5435H22.2231C23.5962 20.5435 24.6631 20.1167 25.4238 19.2632C26.1908 18.4097 26.5742 17.1943 26.5742 15.6172V14.8286C26.5742 13.2948 26.2124 12.1042 25.4888 11.2568C24.7713 10.4033 23.7508 9.97038 22.4272 9.95801H20.3491ZM30.313 16.8882C30.313 15.9048 30.5047 15.0203 30.8882 14.2349C31.2778 13.4494 31.8159 12.8433 32.5024 12.4165C33.1951 11.9897 33.9837 11.7764 34.8682 11.7764C36.235 11.7764 37.339 12.2495 38.1802 13.1958C39.0275 14.1421 39.4512 15.4007 39.4512 16.9717V17.0923C39.4512 18.0695 39.2625 18.9478 38.8853 19.7271C38.5142 20.5002 37.9792 21.1032 37.2803 21.5361C36.5876 21.9691 35.7897 22.1855 34.8867 22.1855C33.526 22.1855 32.422 21.7124 31.5747 20.7661C30.7336 19.8198 30.313 18.5674 30.313 17.0088V16.8882ZM32.0386 17.0923C32.0386 18.2056 32.2952 19.0993 32.8086 19.7734C33.3281 20.4476 34.0208 20.7847 34.8867 20.7847C35.7588 20.7847 36.4515 20.4445 36.9648 19.7642C37.4782 19.0776 37.7349 18.119 37.7349 16.8882C37.7349 15.7873 37.472 14.8966 36.9463 14.2163C36.4268 13.5298 35.734 13.1865 34.8682 13.1865C34.0208 13.1865 33.3374 13.5236 32.8179 14.1978C32.2983 14.8719 32.0386 15.8368 32.0386 17.0923ZM43.2271 11.9619L43.2827 13.2236C44.0496 12.2588 45.0516 11.7764 46.2886 11.7764C48.41 11.7764 49.48 12.9731 49.4985 15.3667V22H47.7822V15.3574C47.776 14.6338 47.609 14.0988 47.2812 13.7524C46.9596 13.4061 46.4556 13.2329 45.769 13.2329C45.2124 13.2329 44.7238 13.3813 44.3032 13.6782C43.8826 13.9751 43.5549 14.3647 43.3198 14.8472V22H41.6035V11.9619H43.2271ZM58.2842 22C58.1852 21.8021 58.1048 21.4495 58.043 20.9424C57.2451 21.7712 56.2926 22.1855 55.1855 22.1855C54.196 22.1855 53.3826 21.9072 52.7456 21.3506C52.1147 20.7878 51.7993 20.0765 51.7993 19.2168C51.7993 18.1715 52.1951 17.3613 52.9868 16.7861C53.7847 16.2048 54.9041 15.9141 56.3452 15.9141H58.0151V15.1255C58.0151 14.5256 57.8358 14.0493 57.4771 13.6968C57.1183 13.3381 56.5895 13.1587 55.8906 13.1587C55.2783 13.1587 54.765 13.3133 54.3506 13.6226C53.9362 13.9318 53.729 14.306 53.729 14.7451H52.0034C52.0034 14.2441 52.1797 13.7617 52.5322 13.2979C52.891 12.8278 53.3734 12.4567 53.9795 12.1846C54.5918 11.9124 55.2629 11.7764 55.9927 11.7764C57.1493 11.7764 58.0553 12.0671 58.7109 12.6484C59.3665 13.2236 59.7067 14.0184 59.7314 15.0327V19.6528C59.7314 20.5744 59.849 21.3073 60.084 21.8516V22H58.2842ZM55.436 20.6919C55.9741 20.6919 56.4844 20.5527 56.9668 20.2744C57.4492 19.9961 57.7987 19.6343 58.0151 19.189V17.1294H56.6699C54.5671 17.1294 53.5156 17.7448 53.5156 18.9756C53.5156 19.5137 53.695 19.9342 54.0537 20.2373C54.4124 20.5404 54.8732 20.6919 55.436 20.6919ZM68.2666 19.3374C68.2666 18.8735 68.0903 18.5148 67.7378 18.2612C67.3914 18.0015 66.7822 17.7788 65.9102 17.5933C65.0443 17.4077 64.3547 17.1851 63.8413 16.9253C63.3341 16.6655 62.9569 16.3563 62.7095 15.9976C62.4683 15.6388 62.3477 15.2121 62.3477 14.7173C62.3477 13.8947 62.694 13.1989 63.3867 12.6299C64.0856 12.0609 64.9762 11.7764 66.0586 11.7764C67.1966 11.7764 68.1182 12.0701 68.8232 12.6577C69.5345 13.2453 69.8901 13.9967 69.8901 14.9121H68.1646C68.1646 14.4421 67.9635 14.0369 67.5615 13.6968C67.1657 13.3566 66.6647 13.1865 66.0586 13.1865C65.4339 13.1865 64.9453 13.3226 64.5928 13.5947C64.2402 13.8669 64.064 14.2225 64.064 14.6616C64.064 15.076 64.2279 15.3883 64.5557 15.5986C64.8835 15.8089 65.4741 16.0099 66.3276 16.2017C67.1873 16.3934 67.8831 16.6222 68.415 16.8882C68.9469 17.1541 69.3397 17.4757 69.5933 17.853C69.853 18.2241 69.9829 18.6787 69.9829 19.2168C69.9829 20.1136 69.6242 20.8341 68.9067 21.3784C68.1893 21.9165 67.2585 22.1855 66.1143 22.1855C65.3102 22.1855 64.599 22.0433 63.9805 21.7588C63.362 21.4743 62.8765 21.0785 62.5239 20.5713C62.1776 20.0579 62.0044 19.5044 62.0044 18.9106H63.7207C63.7516 19.4858 63.9805 19.9435 64.4072 20.2837C64.8402 20.6177 65.4092 20.7847 66.1143 20.7847C66.7637 20.7847 67.2832 20.6548 67.6729 20.395C68.0687 20.1291 68.2666 19.7765 68.2666 19.3374ZM74.0835 22H72.3672V11.9619H74.0835V22ZM72.228 9.29932C72.228 9.021 72.3115 8.78597 72.4785 8.59424C72.6517 8.40251 72.9053 8.30664 73.2393 8.30664C73.5732 8.30664 73.8268 8.40251 74 8.59424C74.1732 8.78597 74.2598 9.021 74.2598 9.29932C74.2598 9.57764 74.1732 9.80957 74 9.99512C73.8268 10.1807 73.5732 10.2734 73.2393 10.2734C72.9053 10.2734 72.6517 10.1807 72.4785 9.99512C72.3115 9.80957 72.228 9.57764 72.228 9.29932Z" fill="#E5E5E5"/>
</svg>
