<svg width="301" height="301" viewBox="0 0 301 301" fill="none" xmlns="http://www.w3.org/2000/svg">
<path d="M274.624 26.3637C237.852 -10.3677 179.58 -11.7199 126.311 41.4901C80.0972 87.6513 90.4617 77.3044 75.8996 91.8488C40.3558 127.352 34.518 180.52 38.4863 215.994L41.6949 247.864C45.3751 244.189 63.0206 215.189 66.6949 218.864C70.3693 222.538 66.6462 212.319 62.9719 215.994L4.13581 276.917C-1.3786 282.425 -1.3786 291.361 4.13581 296.87C9.65022 302.378 18.5979 302.378 24.1123 296.87L62.9719 258.051C93.7186 267.287 164.019 268.733 208.081 225.753H150.356L237.111 196.864C266.5 167.51 258.498 175.594 264.336 169.315H208.081L284.183 143.566C310.897 99.7912 304.354 56.0639 274.624 26.3637Z" fill="url(#paint0_linear_105_105)"/>
<defs>
<linearGradient id="paint0_linear_105_105" x1="150.38" y1="310.5" x2="150.38" y2="-29" gradientUnits="userSpaceOnUse">
<stop stop-color="#053DCC"/>
<stop offset="1" stop-color="#68BEEE"/>
</linearGradient>
</defs>
</svg>
