<?xml version="1.0" encoding="UTF-8" standalone="no"?>
<!-- Created with Inkscape (http://www.inkscape.org/) -->

<svg
   xmlns:dc="http://purl.org/dc/elements/1.1/"
   xmlns:cc="http://creativecommons.org/ns#"
   xmlns:rdf="http://www.w3.org/1999/02/22-rdf-syntax-ns#"
   xmlns:svg="http://www.w3.org/2000/svg"
   xmlns="http://www.w3.org/2000/svg"
   xmlns:sodipodi="http://sodipodi.sourceforge.net/DTD/sodipodi-0.dtd"
   xmlns:inkscape="http://www.inkscape.org/namespaces/inkscape"
   width="152.39999mm"
   height="118.5334mm"
   viewBox="0 0 152.39999 118.5334"
   version="1.1"
   id="svg8"
   sodipodi:docname="watermarkktp.svg"
   inkscape:version="0.92.5 (2060ec1f9f, 2020-04-08)">
  <defs
     id="defs2" />
  <sodipodi:namedview
     id="base"
     pagecolor="#ffffff"
     bordercolor="#666666"
     borderopacity="1.0"
     inkscape:pageopacity="0.0"
     inkscape:pageshadow="2"
     inkscape:zoom="0.7"
     inkscape:cx="475.91762"
     inkscape:cy="282.01938"
     inkscape:document-units="mm"
     inkscape:current-layer="layer1"
     showgrid="false"
     inkscape:window-width="1920"
     inkscape:window-height="1016"
     inkscape:window-x="0"
     inkscape:window-y="27"
     inkscape:window-maximized="1" />
  <metadata
     id="metadata5">
    <rdf:RDF>
      <cc:Work
         rdf:about="">
        <dc:format>image/svg+xml</dc:format>
        <dc:type
           rdf:resource="http://purl.org/dc/dcmitype/StillImage" />
      </cc:Work>
    </rdf:RDF>
  </metadata>
  <g
     inkscape:label="Layer 1"
     inkscape:groupmode="layer"
     id="layer1"
     transform="translate(1251.5104,-1184.9342)">
    <path
       id="path181"
       d="m -1111.8104,1184.9342 h -127 c -7.0141,0 -12.7,5.6859 -12.7,12.7 v 4.2334 h 152.4 v -4.2334 c 0,-7.0141 -5.6886,-12.7 -12.7,-12.7 z m -139.7,105.8334 c 0,7.0115 5.6859,12.7 12.7,12.7 h 127 c 7.0141,0 12.7,-5.6859 12.7,-12.7 v -80.4334 h -152.4 z m 97.3666,-63.5 h 33.8667 c 2.3284,0 4.2334,1.905 4.2334,4.2333 0,2.3283 -1.905,4.2333 -4.2334,4.2333 h -33.8667 c -2.3283,0 -4.2333,-1.905 -4.2333,-4.2333 0,-2.3283 1.905,-4.2333 4.2333,-4.2333 z m 0,16.9333 h 33.8667 c 2.3284,0 4.2334,1.905 4.2334,4.2333 0,2.3284 -1.905,4.2334 -4.2334,4.2334 h -33.8667 c -2.3283,0 -4.2333,-1.905 -4.2333,-4.2334 0,-2.3283 1.905,-4.2333 4.2333,-4.2333 z m 0,16.9333 h 33.8667 c 2.3379,0 4.2334,1.8955 4.2334,4.2334 0,2.3378 -1.905,4.2333 -4.2334,4.2333 h -33.8667 c -2.3378,0 -4.2333,-1.8955 -4.2333,-4.2333 0,-2.3379 1.905,-4.2334 4.2333,-4.2334 z m -50.8,-33.8666 c 9.3531,0 16.9334,7.5829 16.9334,16.9333 0,9.3504 -7.5803,16.9333 -16.9334,16.9333 -9.353,0 -16.9333,-7.5829 -16.9333,-16.9333 0,-9.3504 7.5936,-16.9333 16.9333,-16.9333 z m -16.9333,42.3333 h 33.8667 c 7.0141,0 12.7,5.6859 12.7,12.7 0,2.3379 -1.8955,4.2334 -4.2334,4.2334 h -50.8 c -2.3389,0 -4.2333,-1.905 -4.2333,-4.2334 0,-7.0114 5.6859,-12.7 12.7,-12.7 z"
       inkscape:connector-curvature="0"
       style="fill:#183153;fill-opacity:1;stroke-width:0.26458332" />
    <path
       id="path55-3"
       style="fill:#ffcc00;stroke-width:0.09112141"
       d="m -1171.4391,1251.6435 c -0.595,-0.01 -1.1904,0.2284 -1.6266,0.6989 l -7.9323,8.5427 -3.498,-3.4982 c -0.8543,-0.8542 -2.238,-0.8542 -3.0927,0 -0.8547,0.8543 -0.8544,2.238 0,3.0927 l 5.1029,5.1027 c 0.41,0.4131 0.9657,0.6411 1.5489,0.6411 h 0.04 c 0.595,-0.012 1.159,-0.2636 1.5636,-0.6993 l 9.4767,-10.2055 c 0.8203,-0.8865 0.7657,-2.2714 -0.1183,-3.0915 -0.4143,-0.3846 -0.9391,-0.5778 -1.4641,-0.5836 z m -22.5487,34.9234 c -0.046,0.023 -0.094,0.044 -0.1407,0.067 h 0.2441 c -0.035,-0.022 -0.069,-0.045 -0.1034,-0.067 z"
       inkscape:connector-curvature="0" />
  </g>
</svg>
